<?xml version="1.0" encoding="UTF-8" standalone="no"?>
<!-- Created with Inkscape (http://www.inkscape.org/) -->

<svg
   width="210mm"
   height="297mm"
   viewBox="0 0 210 297"
   version="1.1"
   id="svg5"
   inkscape:version="1.1.2 (b8e25be833, 2022-02-05)"
   sodipodi:docname="logoSaborsaVectLetras.svg"
   xmlns:inkscape="http://www.inkscape.org/namespaces/inkscape"
   xmlns:sodipodi="http://sodipodi.sourceforge.net/DTD/sodipodi-0.dtd"
   xmlns="http://www.w3.org/2000/svg"
   xmlns:svg="http://www.w3.org/2000/svg">
  <sodipodi:namedview
     id="namedview7"
     pagecolor="#ffffff"
     bordercolor="#666666"
     borderopacity="1.0"
     inkscape:pageshadow="2"
     inkscape:pageopacity="0.0"
     inkscape:pagecheckerboard="0"
     inkscape:document-units="mm"
     showgrid="false"
     inkscape:zoom="0.7198092"
     inkscape:cx="387.60271"
     inkscape:cy="542.50487"
     inkscape:window-width="1920"
     inkscape:window-height="1001"
     inkscape:window-x="-9"
     inkscape:window-y="-9"
     inkscape:window-maximized="1"
     inkscape:current-layer="layer1" />
  <defs
     id="defs2">
    <rect
       x="-5.5570282"
       y="200.05301"
       width="794.65503"
       height="362.59609"
       id="rect16859" />
  </defs>
  <g
     inkscape:label="Capa 1"
     inkscape:groupmode="layer"
     id="layer1">
    <g
       id="g1049"
       transform="translate(-11.291386,1.2937044)">
      <path
         style="fill:#f4f29e;stroke-width:0.264583"
         d="M 104.45538,141.42289 C 94.960414,140.03282 85.913676,134.9127 80.040893,127.60518 70.423944,115.63879 68.697094,99.428692 75.586346,85.789932 77.505107,81.99133 79.260094,79.608363 82.537942,76.350874 92.719211,66.232842 106.40742,62.471273 120.02914,66.048157 c 6.98493,1.834148 12.07652,4.830788 17.2006,10.123359 4.48254,4.629928 7.39814,9.315032 9.22978,14.831409 1.40953,4.245094 1.7524,6.252345 1.90504,11.152535 0.11778,3.78104 0.0534,5.00395 -0.40383,7.67292 -1.33091,7.76863 -4.75587,14.50891 -10.1931,20.05994 -6.24339,6.37405 -13.4923,10.16586 -21.86541,11.4375 -2.70109,0.41021 -8.94612,0.46317 -11.44684,0.0971 z m 8.9659,-19.62545 c 1.43728,-1.49342 4.28011,-4.79622 6.3174,-7.33956 5.0627,-6.32022 7.15002,-8.33887 11.40636,-11.03111 0.45671,-0.28887 0.23707,-0.57598 -2.54282,-3.3239 -1.67349,-1.654245 -5.06677,-4.622973 -7.54063,-6.597177 -5.02203,-4.007723 -8.50702,-7.458541 -10.03562,-9.937211 -0.56089,-0.909505 -1.0944,-1.653645 -1.18559,-1.653645 -0.24809,0 -5.01381,4.908703 -6.6788,6.879166 -0.79924,0.945886 -2.27652,2.791354 -3.282845,4.101042 -2.608247,3.394525 -6.524966,7.372385 -8.913495,9.052625 -1.127786,0.79336 -2.050521,1.50003 -2.050521,1.57039 0,0.79372 4.212117,4.67946 10.843141,10.00296 4.74351,3.80817 7.56045,6.61839 9.32595,9.30372 0.61039,0.92841 1.24805,1.68801 1.41703,1.68801 0.16897,0 1.48317,-1.22189 2.92044,-2.71531 z"
         id="path1067" />
      <path
         style="fill:#fdef73;stroke-width:0.264583"
         d="m 104.45538,141.42289 c -4.23864,-0.62054 -9.107592,-2.22007 -12.630244,-4.14925 -2.571796,-1.40844 -5.564411,-3.47829 -5.757123,-3.98193 -0.09356,-0.24452 -1.165194,-1.3869 -2.381407,-2.53861 -3.096974,-2.93274 -5.852913,-6.70043 -7.724653,-10.5605 -1.943325,-4.0077 -2.8053,-6.60865 -3.465427,-10.45666 -1.633808,-9.5238 0.452817,-19.522958 5.72289,-27.424228 2.765966,-4.146935 3.342123,-4.882723 5.183888,-6.620152 5.341368,-5.038776 11.621295,-8.376293 18.740586,-9.959829 2.38916,-0.531421 3.50047,-0.617936 7.9375,-0.617936 4.4431,0 5.5429,0.08585 7.92195,0.618383 7.72945,1.730174 14.2539,5.294494 19.36132,10.577118 4.3542,4.503572 7.28193,9.233597 9.09486,14.693629 1.40953,4.245094 1.7524,6.252345 1.90504,11.152535 0.11778,3.78104 0.0534,5.00395 -0.40383,7.67292 -1.33091,7.76863 -4.75587,14.50891 -10.1931,20.05994 -6.24339,6.37405 -13.4923,10.16586 -21.86541,11.4375 -2.70109,0.41021 -8.94612,0.46317 -11.44684,0.0971 z m -14.482327,-8.70805 c 0,-0.31878 -1.77171,-0.31878 -2.513542,0 -0.380722,0.1636 -0.102388,0.23261 0.992187,0.24598 0.850245,0.0104 1.521355,-0.0981 1.521355,-0.24598 z M 113.6802,121.53751 c 1.30019,-1.36002 4.02868,-4.54977 6.06331,-7.08832 5.06073,-6.31413 7.1479,-8.33189 11.40153,-11.02242 0.45671,-0.28887 0.23707,-0.57598 -2.54282,-3.3239 -1.67349,-1.654245 -5.06677,-4.622973 -7.54063,-6.597177 -5.02203,-4.007723 -8.50702,-7.458541 -10.03562,-9.93721 -0.56089,-0.909506 -1.16261,-1.653646 -1.33717,-1.653646 -0.58577,0 -5.81792,5.6466 -9.43879,10.186458 -4.184159,5.246119 -8.107287,9.138715 -10.482418,10.400825 -1.358956,0.72214 -1.606115,0.95429 -1.40844,1.32292 0.535519,0.99865 6.254769,6.24923 10.477442,9.61885 2.473856,1.9741 5.468796,4.60268 6.655426,5.84129 1.96128,2.04721 2.4819,2.72001 3.89883,5.03846 l 0.45037,0.73693 0.7375,-0.52515 c 0.40563,-0.28883 1.80129,-1.63789 3.10148,-2.99791 z M 80.69404,82.22995 c -0.01023,-0.391594 -0.120923,-0.950113 -0.245987,-1.241155 -0.166568,-0.387623 -0.232365,-0.153437 -0.245987,0.875512 -0.01156,0.873294 0.08149,1.342818 0.245987,1.241155 0.14552,-0.08994 0.256215,-0.483918 0.245987,-0.875512 z"
         id="path1065" />
      <path
         style="fill:#fb65bf;stroke-width:0.264583"
         d="m 104.47424,141.42524 c -4.696168,-0.68878 -10.001988,-2.5427 -13.862041,-4.84355 -2.524161,-1.50457 -4.607896,-2.99683 -4.607896,-3.29993 0,-0.12193 1.398984,-0.30124 3.108854,-0.39846 8.548005,-0.48603 14.124503,-2.44141 19.699063,-6.90741 3.4955,-2.80037 6.35251,-5.81385 10.94819,-11.54777 5.04343,-6.29256 7.13392,-8.31267 11.38463,-11.00135 0.45671,-0.28887 0.23707,-0.57598 -2.54282,-3.3239 -1.67349,-1.654245 -5.06677,-4.622973 -7.54063,-6.597177 -5.02203,-4.007723 -8.50702,-7.458541 -10.03562,-9.937211 -0.56089,-0.909505 -1.16261,-1.653645 -1.33717,-1.653645 -0.58577,0 -5.81792,5.6466 -9.43879,10.186458 -4.435831,5.561666 -8.057447,9.094025 -10.949313,10.679475 -1.783364,0.97771 -2.399857,1.17548 -4.026579,1.29173 -3.236786,0.2313 -4.991681,-0.80796 -5.917798,-3.50454 -0.253249,-0.737384 -0.359659,-2.382238 -0.35089,-5.423957 0.01302,-4.516461 0.269643,-6.752211 1.21211,-10.560174 0.471802,-1.906281 0.508722,-2.43573 0.257192,-3.688194 -0.278797,-1.38823 -0.258067,-1.513799 0.408761,-2.476032 0.952595,-1.374594 3.933171,-4.152415 6.488294,-6.046923 4.179137,-3.098641 9.401338,-5.446335 14.772103,-6.640949 2.38916,-0.531421 3.50047,-0.617936 7.9375,-0.617936 4.4431,0 5.5429,0.08585 7.92195,0.618383 7.72945,1.730174 14.2539,5.294494 19.36132,10.577118 4.3542,4.503572 7.28193,9.233597 9.09486,14.693629 1.40953,4.245094 1.7524,6.252345 1.90504,11.152535 0.11778,3.78104 0.0534,5.00395 -0.40383,7.67292 -1.33091,7.76863 -4.75587,14.50891 -10.1931,20.05994 -6.24339,6.37405 -13.4923,10.16586 -21.86541,11.4375 -2.69367,0.40909 -8.9458,0.46348 -11.42798,0.0994 z"
         id="path1063" />
      <path
         style="fill:#9deb8f;stroke-width:0.264583"
         d="m 99.365761,134.40651 c -2.512812,-0.1918 -5.561248,-0.66009 -7.011458,-1.07709 l -1.455209,-0.41843 3.439584,-0.59044 c 5.799522,-0.99554 9.477482,-2.52006 13.552582,-5.61755 2.13339,-1.62159 2.18153,-1.64235 2.48674,-1.07206 0.45397,0.84825 0.60364,3.86534 0.25556,5.15177 -0.40162,1.48428 -1.59667,2.62256 -3.27852,3.12277 -1.40549,0.41801 -5.61679,0.68211 -7.989279,0.50103 z m 40.501379,-7.2973 c -0.0596,-0.19112 -0.17818,-1.65719 -0.26342,-3.25792 -0.33551,-6.29998 -1.81792,-11.82507 -4.18837,-15.61041 -2.68605,-4.28932 -7.6945,-9.43249 -14.35376,-14.739852 -5.01777,-3.999113 -8.5049,-7.450436 -10.03562,-9.932545 -0.56089,-0.909506 -1.16261,-1.653646 -1.33717,-1.653646 -0.58577,0 -5.81792,5.6466 -9.43879,10.186458 -4.435831,5.561666 -8.057447,9.094025 -10.949313,10.679475 -1.783364,0.97771 -2.399857,1.17548 -4.026579,1.29173 -3.236786,0.2313 -4.991681,-0.80796 -5.917798,-3.50454 -0.253249,-0.737384 -0.359659,-2.382238 -0.35089,-5.423957 0.01302,-4.516461 0.269643,-6.752211 1.21211,-10.560174 0.471802,-1.906281 0.508722,-2.43573 0.257192,-3.688194 -0.278797,-1.38823 -0.258067,-1.513799 0.408761,-2.476032 0.952595,-1.374594 3.933171,-4.152415 6.488294,-6.046923 4.179137,-3.098641 9.401338,-5.446335 14.772103,-6.640949 2.38916,-0.531421 3.50047,-0.617936 7.9375,-0.617936 4.4431,0 5.5429,0.08585 7.92195,0.618383 7.72945,1.730174 14.2539,5.294494 19.36132,10.577118 4.3542,4.503572 7.28193,9.233597 9.09486,14.693629 1.40953,4.245094 1.7524,6.252345 1.90504,11.152535 0.21626,6.94259 -0.75203,11.70041 -3.61361,17.75594 -1.15307,2.44006 -3.98949,7.0596 -4.5457,7.40335 -0.12633,0.0781 -0.27848,-0.0144 -0.33811,-0.20554 z"
         id="path1061" />
      <path
         style="fill:#65cce1;stroke-width:0.264583"
         d="m 99.365761,134.40651 c -2.512812,-0.1918 -5.561248,-0.66009 -7.011458,-1.07709 l -1.455209,-0.41843 3.439584,-0.59044 c 5.799522,-0.99554 9.477482,-2.52006 13.552582,-5.61755 2.13339,-1.62159 2.18153,-1.64235 2.48674,-1.07206 0.45397,0.84825 0.60364,3.86534 0.25556,5.15177 -0.40162,1.48428 -1.59667,2.62256 -3.27852,3.12277 -1.40549,0.41801 -5.61679,0.68211 -7.989279,0.50103 z m 40.501379,-7.2973 c -0.0596,-0.19112 -0.17818,-1.65719 -0.26342,-3.25792 -0.33551,-6.29998 -1.81792,-11.82507 -4.18837,-15.61041 -2.68334,-4.28498 -7.68545,-9.423166 -14.35376,-14.74422 -8.65006,-6.902418 -11.88569,-11.161631 -11.84397,-15.590794 0.008,-0.826304 0.15306,-1.923243 0.32283,-2.437642 0.38079,-1.15381 1.78361,-2.422631 3.11339,-2.815989 2.79745,-0.827505 10.37711,-0.541465 14.83973,0.56002 2.21214,0.546008 5.16718,0.603143 6.22224,0.120305 0.39267,-0.179701 1.03923,0.344166 3.44528,2.791468 4.48614,4.563073 7.44556,9.298588 9.29843,14.878897 1.40953,4.245094 1.7524,6.252345 1.90504,11.152535 0.21626,6.94259 -0.75203,11.70041 -3.61361,17.75594 -1.15307,2.44006 -3.98949,7.0596 -4.5457,7.40335 -0.12633,0.0781 -0.27848,-0.0144 -0.33811,-0.20554 z M 81.877085,103.65187 c -1.205797,-0.5656 -1.965728,-1.49677 -2.516786,-3.08391 -0.466159,-1.342616 -0.479937,-8.938428 -0.02136,-11.773957 0.648499,-4.009845 1.373694,-5.860301 1.373694,-3.505205 0,1.655315 0.962747,6.149528 1.818341,8.488222 0.985667,2.694237 2.171731,4.843362 4.109671,7.44665 1.838995,2.47037 1.718214,2.70122 -1.486462,2.84116 -1.75292,0.0765 -2.410064,-0.006 -3.277101,-0.41296 z"
         id="path1059" />
      <path
         style="fill:#a5d965;stroke-width:0.264583"
         d="m 99.365761,134.40651 c -2.512812,-0.1918 -5.561248,-0.66009 -7.011458,-1.07709 l -1.455209,-0.41843 3.439584,-0.59044 c 5.799522,-0.99554 9.477482,-2.52006 13.552582,-5.61755 2.13339,-1.62159 2.18153,-1.64235 2.48674,-1.07206 0.45397,0.84825 0.60364,3.86534 0.25556,5.15177 -0.40162,1.48428 -1.59667,2.62256 -3.27852,3.12277 -1.40549,0.41801 -5.61679,0.68211 -7.989279,0.50103 z m 40.369849,-7.66685 c 0.0127,-0.30822 0.0754,-0.37092 0.15985,-0.15985 0.0764,0.191 0.067,0.4192 -0.0209,0.50712 -0.0879,0.0879 -0.15045,-0.0683 -0.13896,-0.34727 z m -0.26814,-4.74045 c -0.01,-0.58208 -0.18606,-2.01294 -0.3914,-3.17968 -1.04805,-5.95505 -2.46423,-9.27999 -5.7822,-13.5756 -0.71117,-0.92072 -1.23379,-1.82842 -1.16138,-2.01711 0.34391,-0.89624 4.48631,-0.95519 6.23165,-0.0887 1.5183,0.75378 2.27743,2.1607 2.6819,4.97046 0.4506,3.13019 -0.1914,10.55653 -1.18939,13.75833 l -0.37112,1.19063 -0.0181,-1.05834 z M 81.877085,103.65187 c -1.205797,-0.5656 -1.965728,-1.49677 -2.516786,-3.08391 -0.466159,-1.342616 -0.479937,-8.938428 -0.02136,-11.773957 0.648499,-4.009845 1.373694,-5.860301 1.373694,-3.505205 0,1.655315 0.962747,6.149528 1.818341,8.488222 0.985667,2.694237 2.171731,4.843362 4.109671,7.44665 1.838995,2.47037 1.718214,2.70122 -1.486462,2.84116 -1.75292,0.0765 -2.410064,-0.006 -3.277101,-0.41296 z M 109.51935,80.393483 c -0.38146,-0.976039 -0.3725,-3.732668 0.016,-4.909674 0.38542,-1.167836 1.78251,-2.436368 3.11854,-2.831574 0.54968,-0.162599 2.25753,-0.363515 3.79521,-0.44648 4.16989,-0.224982 11.86738,0.687514 11.59613,1.37466 -0.0574,0.145494 -1.25034,0.456783 -2.65091,0.691751 -5.13948,0.862231 -9.11115,2.498912 -12.83592,5.289547 -1.14405,0.857135 -2.23186,1.558641 -2.41737,1.5589 -0.1855,2.62e-4 -0.46524,-0.326948 -0.62163,-0.72713 z"
         id="path1057" />
      <path
         style="fill:#e36a52;stroke-width:0.264583"
         d="m 99.365761,134.40651 c -2.512812,-0.1918 -5.561248,-0.66009 -7.011458,-1.07709 l -1.455209,-0.41843 3.439584,-0.59044 c 5.799522,-0.99554 9.477482,-2.52006 13.552582,-5.61755 2.13339,-1.62159 2.18153,-1.64235 2.48674,-1.07206 0.45397,0.84825 0.60364,3.86534 0.25556,5.15177 -0.40162,1.48428 -1.59667,2.62256 -3.27852,3.12277 -1.40549,0.41801 -5.61679,0.68211 -7.989279,0.50103 z m 40.369849,-7.66685 c 0.0127,-0.30822 0.0754,-0.37092 0.15985,-0.15985 0.0764,0.191 0.067,0.4192 -0.0209,0.50712 -0.0879,0.0879 -0.15045,-0.0683 -0.13896,-0.34727 z m -0.26814,-4.74045 c -0.01,-0.58208 -0.18606,-2.01294 -0.3914,-3.17968 -1.04805,-5.95505 -2.46423,-9.27999 -5.7822,-13.5756 -0.71117,-0.92072 -1.23379,-1.82842 -1.16138,-2.01711 0.34391,-0.89624 4.48631,-0.95519 6.23165,-0.0887 1.5183,0.75378 2.27743,2.1607 2.6819,4.97046 0.4506,3.13019 -0.1914,10.55653 -1.18939,13.75833 l -0.37112,1.19063 -0.0181,-1.05834 z M 109.51935,80.393483 c -0.38146,-0.976039 -0.3725,-3.732668 0.016,-4.909674 0.38542,-1.167836 1.78251,-2.436368 3.11854,-2.831574 0.54968,-0.162599 2.25753,-0.363515 3.79521,-0.44648 4.16989,-0.224982 11.86738,0.687514 11.59613,1.37466 -0.0574,0.145494 -1.25034,0.456783 -2.65091,0.691751 -5.13948,0.862231 -9.11115,2.498912 -12.83592,5.289547 -1.14405,0.857135 -2.23186,1.558641 -2.41737,1.5589 -0.1855,2.62e-4 -0.46524,-0.326948 -0.62163,-0.72713 z"
         id="path1055" />
      <path
         style="fill:#7e6490;stroke-width:0.264583"
         d="m 139.73561,126.73966 c 0.0127,-0.30822 0.0754,-0.37092 0.15985,-0.15985 0.0764,0.191 0.067,0.4192 -0.0209,0.50712 -0.0879,0.0879 -0.15045,-0.0683 -0.13896,-0.34727 z m -0.26814,-4.74045 c -0.01,-0.58208 -0.18606,-2.01294 -0.3914,-3.17968 -1.04805,-5.95505 -2.46423,-9.27999 -5.7822,-13.5756 -0.71117,-0.92072 -1.23379,-1.82842 -1.16138,-2.01711 0.34391,-0.89624 4.48631,-0.95519 6.23165,-0.0887 1.5183,0.75378 2.27743,2.1607 2.6819,4.97046 0.4506,3.13019 -0.1914,10.55653 -1.18939,13.75833 l -0.37112,1.19063 -0.0181,-1.05834 z M 109.51935,80.393483 c -0.38146,-0.976039 -0.3725,-3.732668 0.016,-4.909674 0.38542,-1.167836 1.78251,-2.436368 3.11854,-2.831574 0.54968,-0.162599 2.25753,-0.363515 3.79521,-0.44648 4.16989,-0.224982 11.86738,0.687514 11.59613,1.37466 -0.0574,0.145494 -1.25034,0.456783 -2.65091,0.691751 -5.13948,0.862231 -9.11115,2.498912 -12.83592,5.289547 -1.14405,0.857135 -2.23186,1.558641 -2.41737,1.5589 -0.1855,2.62e-4 -0.46524,-0.326948 -0.62163,-0.72713 z"
         id="path1053" />
      <path
         style="fill:#06b48f;stroke-width:0.264583"
         d="m 109.51935,80.393483 c -0.38146,-0.976039 -0.3725,-3.732668 0.016,-4.909674 0.38542,-1.167836 1.78251,-2.436368 3.11854,-2.831574 0.54968,-0.162599 2.25753,-0.363515 3.79521,-0.44648 4.16989,-0.224982 11.86738,0.687514 11.59613,1.37466 -0.0574,0.145494 -1.25034,0.456783 -2.65091,0.691751 -5.13948,0.862231 -9.11115,2.498912 -12.83592,5.289547 -1.14405,0.857135 -2.23186,1.558641 -2.41737,1.5589 -0.1855,2.62e-4 -0.46524,-0.326948 -0.62163,-0.72713 z"
         id="path1051" />
    </g>
    <text
       xml:space="preserve"
       style="font-style:normal;font-variant:normal;font-weight:normal;font-stretch:normal;font-size:23.176px;line-height:1.25;font-family:'Geometr212 BkCn BT';-inkscape-font-specification:'Geometr212 BkCn BT';fill:#000000;fill-opacity:1;stroke:none;stroke-width:0.5794"
       x="93.042404"
       y="171.778"
       id="text1263"
       transform="scale(1.0472236,0.95490591)"><tspan
         sodipodi:role="line"
         id="tspan1261"
         style="font-style:normal;font-variant:normal;font-weight:normal;font-stretch:normal;font-family:'Geometr212 BkCn BT';-inkscape-font-specification:'Geometr212 BkCn BT';text-align:center;text-anchor:middle;fill:#ffffff;stroke-width:0.5794"
         x="93.042404"
         y="171.778">Grupo </tspan><tspan
         sodipodi:role="line"
         style="font-style:normal;font-variant:normal;font-weight:normal;font-stretch:normal;font-family:'Geometr212 BkCn BT';-inkscape-font-specification:'Geometr212 BkCn BT';text-align:center;text-anchor:middle;fill:#ffffff;stroke-width:0.5794"
         x="93.042404"
         y="200.748"
         id="tspan2447">Saborsa</tspan></text>
    <text
       xml:space="preserve"
       transform="scale(0.26458333)"
       id="text16857"
       style="fill:black;fill-opacity:1;line-height:1.25;stroke:none;font-family:sans-serif;font-style:normal;font-weight:normal;font-size:40px;white-space:pre;shape-inside:url(#rect16859)" />
  </g>
</svg>
